<svg width="24" height="24" viewBox="0 0 24 24" fill="none" xmlns="http://www.w3.org/2000/svg">
<path d="M12 2C6.475 2 2 6.475 2 12C1.9988 14.0992 2.6586 16.1454 3.88581 17.8484C5.11302 19.5515 6.84533 20.8249 8.837 21.488C9.337 21.575 9.525 21.275 9.525 21.012C9.525 20.775 9.512 19.988 9.512 19.15C7 19.613 6.35 18.538 6.15 17.975C6.037 17.687 5.55 16.8 5.125 16.562C4.775 16.375 4.275 15.912 5.112 15.9C5.9 15.887 6.462 16.625 6.65 16.925C7.55 18.437 8.987 18.012 9.562 17.75C9.65 17.1 9.912 16.663 10.2 16.413C7.975 16.163 5.65 15.3 5.65 11.475C5.65 10.387 6.037 9.488 6.675 8.788C6.575 8.538 6.225 7.513 6.775 6.138C6.775 6.138 7.612 5.875 9.525 7.162C10.3391 6.9364 11.1802 6.82302 12.025 6.825C12.875 6.825 13.725 6.937 14.525 7.162C16.438 5.862 17.275 6.138 17.275 6.138C17.825 7.513 17.475 8.538 17.375 8.788C18.012 9.488 18.4 10.375 18.4 11.475C18.4 15.313 16.063 16.163 13.838 16.413C14.2 16.725 14.513 17.325 14.513 18.263C14.513 19.6 14.5 20.675 14.5 21.013C14.5 21.275 14.688 21.587 15.188 21.487C17.1728 20.8166 18.8975 19.5408 20.1193 17.8389C21.3411 16.1371 21.9985 14.095 21.999 12C21.999 6.475 17.524 2 11.999 2" fill="#F24E1E"/>
</svg>
