<svg width="36" height="36" viewBox="0 0 36 36" fill="none" xmlns="http://www.w3.org/2000/svg">
<g clip-path="url(#clip0_902_2256)">
<path d="M27 4.5C28.1935 4.5 29.3381 4.97411 30.182 5.81802C31.0259 6.66193 31.5 7.80653 31.5 9V27C31.5 28.1935 31.0259 29.3381 30.182 30.182C29.3381 31.0259 28.1935 31.5 27 31.5H9C7.80653 31.5 6.66193 31.0259 5.81802 30.182C4.97411 29.3381 4.5 28.1935 4.5 27V9C4.5 7.80653 4.97411 6.66193 5.81802 5.81802C6.66193 4.97411 7.80653 4.5 9 4.5H27ZM27 7.5H9C8.60218 7.5 8.22064 7.65804 7.93934 7.93934C7.65804 8.22064 7.5 8.60218 7.5 9V27C7.5 27.3978 7.65804 27.7794 7.93934 28.0607C8.22064 28.342 8.60218 28.5 9 28.5H27C27.3978 28.5 27.7794 28.342 28.0607 28.0607C28.342 27.7794 28.5 27.3978 28.5 27V9C28.5 8.60218 28.342 8.22064 28.0607 7.93934C27.7794 7.65804 27.3978 7.5 27 7.5ZM12 15C12.3674 15 12.722 15.1349 12.9966 15.3791C13.2711 15.6232 13.4465 15.9596 13.4895 16.3245L13.5 16.5V24C13.4996 24.3823 13.3532 24.75 13.0907 25.0281C12.8283 25.3061 12.4696 25.4734 12.0879 25.4958C11.7062 25.5182 11.3304 25.394 11.0373 25.1486C10.7441 24.9032 10.5557 24.5551 10.5105 24.1755L10.5 24V16.5C10.5 16.1022 10.658 15.7206 10.9393 15.4393C11.2206 15.158 11.6022 15 12 15ZM16.5 13.5C16.8513 13.4999 17.1915 13.6232 17.4612 13.8482C17.7309 14.0733 17.9131 14.3859 17.976 14.7315C18.2778 14.5565 18.5899 14.3997 18.9105 14.262C19.911 13.8345 21.4095 13.599 22.7625 14.0235C23.472 14.2485 24.1845 14.6685 24.7125 15.384C25.185 16.0215 25.44 16.797 25.491 17.6685L25.5 18V24C25.4996 24.3823 25.3532 24.75 25.0907 25.0281C24.8283 25.3061 24.4696 25.4734 24.0879 25.4958C23.7062 25.5182 23.3304 25.394 23.0373 25.1486C22.7441 24.9032 22.5557 24.5551 22.5105 24.1755L22.5 24V18C22.5 17.505 22.38 17.274 22.302 17.1675C22.19 17.0282 22.0358 16.9292 21.8625 16.8855C21.3405 16.7205 20.589 16.8075 20.0895 17.0205C19.3395 17.3415 18.6525 17.8455 18.1845 18.312L18 18.51V24C17.9996 24.3823 17.8532 24.75 17.5907 25.0281C17.3283 25.3061 16.9696 25.4734 16.5879 25.4958C16.2062 25.5182 15.8304 25.394 15.5373 25.1486C15.2441 24.9032 15.0557 24.5551 15.0105 24.1755L15 24V15C15 14.6022 15.158 14.2206 15.4393 13.9393C15.7206 13.658 16.1022 13.5 16.5 13.5ZM12 10.5C12.3978 10.5 12.7794 10.658 13.0607 10.9393C13.342 11.2206 13.5 11.6022 13.5 12C13.5 12.3978 13.342 12.7794 13.0607 13.0607C12.7794 13.342 12.3978 13.5 12 13.5C11.6022 13.5 11.2206 13.342 10.9393 13.0607C10.658 12.7794 10.5 12.3978 10.5 12C10.5 11.6022 10.658 11.2206 10.9393 10.9393C11.2206 10.658 11.6022 10.5 12 10.5Z" fill="#F24E1E"/>
</g>
<defs>
<clipPath id="clip0_902_2256">
<rect width="36" height="36" fill="white"/>
</clipPath>
</defs>
</svg>
