<svg width="58" height="58" viewBox="0 0 58 58" fill="none" xmlns="http://www.w3.org/2000/svg">
<path d="M13.0508 11.5996C11.128 11.5996 9.2839 12.3634 7.92426 13.7231C6.56462 15.0827 5.80078 16.9268 5.80078 18.8496V39.1496C5.80078 41.0724 6.56462 42.9165 7.92426 44.2761C9.2839 45.6358 11.128 46.3996 13.0508 46.3996H44.9508C46.8736 46.3996 48.7177 45.6358 50.0773 44.2761C51.4369 42.9165 52.2008 41.0724 52.2008 39.1496V18.8496C52.2008 16.9268 51.4369 15.0827 50.0773 13.7231C48.7177 12.3634 46.8736 11.5996 44.9508 11.5996H13.0508ZM8.70078 18.8496C8.70078 17.6959 9.15908 16.5895 9.97487 15.7737C10.7907 14.9579 11.8971 14.4996 13.0508 14.4996H44.9508C46.1045 14.4996 47.2109 14.9579 48.0267 15.7737C48.8425 16.5895 49.3008 17.6959 49.3008 18.8496V39.1496C49.3008 40.3033 48.8425 41.4097 48.0267 42.2255C47.2109 43.0413 46.1045 43.4996 44.9508 43.4996H13.0508C11.8971 43.4996 10.7907 43.0413 9.97487 42.2255C9.15908 41.4097 8.70078 40.3033 8.70078 39.1496V18.8496ZM13.0508 17.3996C12.6662 17.3996 12.2974 17.5524 12.0255 17.8243C11.7535 18.0962 11.6008 18.465 11.6008 18.8496C11.6008 19.2342 11.7535 19.603 12.0255 19.8749C12.2974 20.1468 12.6662 20.2996 13.0508 20.2996H27.5508C27.9353 20.2996 28.3042 20.1468 28.5761 19.8749C28.848 19.603 29.0008 19.2342 29.0008 18.8496C29.0008 18.465 28.848 18.0962 28.5761 17.8243C28.3042 17.5524 27.9353 17.3996 27.5508 17.3996H13.0508ZM13.0508 23.1996C12.6662 23.1996 12.2974 23.3524 12.0255 23.6243C11.7535 23.8962 11.6008 24.265 11.6008 24.6496C11.6008 25.0342 11.7535 25.403 12.0255 25.6749C12.2974 25.9468 12.6662 26.0996 13.0508 26.0996H36.2508C36.6353 26.0996 37.0042 25.9468 37.2761 25.6749C37.548 25.403 37.7008 25.0342 37.7008 24.6496C37.7008 24.265 37.548 23.8962 37.2761 23.6243C37.0042 23.3524 36.6353 23.1996 36.2508 23.1996H13.0508ZM14.5008 31.8996C13.7317 31.8996 12.994 32.2051 12.4502 32.749C11.9063 33.2929 11.6008 34.0305 11.6008 34.7996V37.6996C11.6008 38.4687 11.9063 39.2064 12.4502 39.7502C12.994 40.2941 13.7317 40.5996 14.5008 40.5996H26.1008C26.8699 40.5996 27.6075 40.2941 28.1514 39.7502C28.6952 39.2064 29.0008 38.4687 29.0008 37.6996V34.7996C29.0008 34.0305 28.6952 33.2929 28.1514 32.749C27.6075 32.2051 26.8699 31.8996 26.1008 31.8996H14.5008Z" fill="#F24E1E"/>
</svg>
