<svg width="58" height="58" viewBox="0 0 58 58" fill="none" xmlns="http://www.w3.org/2000/svg">
<path d="M25.375 39.7766C24.1183 39.6372 22.8823 39.3513 21.692 38.9247C21.7283 38.0692 21.75 37.1775 21.75 36.2495V35.0279C22.8738 35.5644 24.0954 35.9377 25.375 36.1226V27.187C25.375 25.7449 25.9479 24.3618 26.9676 23.3421C27.9873 22.3224 29.3704 21.7495 30.8125 21.7495H39.7481C39.459 19.7408 38.6923 17.8308 37.5124 16.1797C36.3324 14.5287 34.7736 13.1848 32.9668 12.2608C31.16 11.3368 29.1579 10.8597 27.1286 10.8695C25.0993 10.8793 23.1019 11.3758 21.3041 12.3172C21.0174 11.1316 20.5451 9.99873 19.9049 8.96048C22.2549 7.78752 24.8533 7.19934 27.4793 7.24593C30.1054 7.29253 32.6813 7.97252 34.9882 9.2281C37.2951 10.4837 39.2647 12.2777 40.7296 14.4577C42.1945 16.6377 43.1113 19.1392 43.4021 21.7495H48.9375C50.3796 21.7495 51.7627 22.3224 52.7824 23.3421C53.8021 24.3618 54.375 25.7449 54.375 27.187V45.312C54.375 46.7541 53.8021 48.1371 52.7824 49.1569C51.7627 50.1766 50.3796 50.7495 48.9375 50.7495H30.8125C29.3704 50.7495 27.9873 50.1766 26.9676 49.1569C25.9479 48.1371 25.375 46.7541 25.375 45.312V39.7766ZM43.4021 25.3745C42.9902 29.0524 41.3405 32.4811 38.7236 35.098C36.1066 37.715 32.6779 39.3647 29 39.7766V45.312C29 45.7927 29.191 46.2537 29.5309 46.5936C29.8708 46.9335 30.3318 47.1245 30.8125 47.1245H48.9375C49.4182 47.1245 49.8792 46.9335 50.2191 46.5936C50.559 46.2537 50.75 45.7927 50.75 45.312V27.187C50.75 26.7063 50.559 26.2453 50.2191 25.9053C49.8792 25.5654 49.4182 25.3745 48.9375 25.3745H43.4021ZM39.7481 25.3745H30.8125C30.3318 25.3745 29.8708 25.5654 29.5309 25.9053C29.191 26.2453 29 26.7063 29 27.187V36.1226C31.7114 35.7307 34.2233 34.4722 36.1605 32.535C38.0977 30.5978 39.3562 28.0859 39.7481 25.3745ZM17.3819 27.4081C17.0013 26.0089 16.385 24.606 15.3265 23.5294C17.0375 21.909 18.125 19.328 18.125 16.312C18.125 13.7854 17.6139 12.049 16.6895 10.6606C16.2793 10.0635 15.8053 9.51284 15.2758 9.01848C15.0728 8.82254 14.8674 8.62919 14.6595 8.43848C14.4384 8.23185 14.2354 8.04335 13.9708 7.77873C13.427 7.23498 13.3654 6.79998 13.3654 6.5716C13.366 6.44466 13.3868 6.31863 13.427 6.19823C13.5927 5.83981 13.6369 5.43707 13.5527 5.05126C13.4686 4.66544 13.2607 4.31767 12.9608 4.06082C12.6609 3.80397 12.2853 3.65209 11.8911 3.6283C11.4969 3.6045 11.1058 3.71008 10.7771 3.92898L10.7699 3.9326L10.759 3.93985L10.7264 3.9616L10.6176 4.0341C10.0739 4.42195 9.55 4.83693 9.048 5.27748C8.14175 6.0786 6.96 7.26398 6.12263 8.67773C5.39164 9.84979 4.80497 11.1059 4.37538 12.4187C3.94038 13.7201 3.625 15.1302 3.625 16.312C3.625 19.328 4.7125 21.9054 6.4235 23.533C5.365 24.606 4.74875 26.0089 4.36813 27.4117C3.625 30.1377 3.625 33.509 3.625 36.1154V36.2495C3.625 43.7097 5.02062 48.1395 6.60112 50.7749C7.395 52.0944 8.2215 52.9462 8.91388 53.4827C9.2828 53.7705 9.68431 54.0138 10.1101 54.2077C10.3564 54.2976 10.6137 54.3537 10.875 54.3745C11.1795 54.3745 11.6399 54.2077 11.6399 54.2077C12.0657 54.0138 12.4672 53.7705 12.8361 53.4827C13.5249 52.9462 14.3586 52.0944 15.1489 50.7749C16.7294 48.1431 18.125 43.7097 18.125 36.2495V36.119C18.125 33.509 18.125 30.1414 17.3819 27.4081ZM9.01537 26.0669C9.425 25.6536 9.97238 25.3745 10.875 25.3745C11.7812 25.3745 12.325 25.6572 12.7346 26.0632C13.1914 26.5236 13.5865 27.2704 13.8837 28.3615C14.4855 30.5764 14.5 33.4836 14.5 36.2495C14.5 43.2892 13.1769 47.0157 12.0386 48.9116C11.6036 49.6366 11.194 50.1042 10.875 50.3979C10.4192 49.9596 10.0275 49.4592 9.71137 48.9116C8.57312 47.0121 7.25 43.2892 7.25 36.2495C7.25 33.4836 7.2645 30.5764 7.86625 28.3615C8.1635 27.274 8.55862 26.5272 9.01537 26.0669ZM10.875 21.7495C9.47938 21.7495 7.25 20.198 7.25 16.312C7.25 15.6849 7.4385 14.6916 7.8155 13.5679C8.15905 12.5069 8.6327 11.4927 9.22563 10.5482C9.541 10.0154 9.95063 9.49698 10.3929 9.0221C10.643 9.46435 10.9729 9.91023 11.4079 10.3452C11.6725 10.6099 12.0169 10.9289 12.3105 11.2044L12.76 11.6249C13.1406 11.9946 13.4342 12.3172 13.6699 12.6761C14.1049 13.325 14.5 14.3074 14.5 16.312C14.5 20.198 12.2706 21.7495 10.875 21.7495Z" fill="#F24E1E"/>
</svg>
