<svg width="36" height="36" viewBox="0 0 36 36" fill="none" xmlns="http://www.w3.org/2000/svg">
<path d="M28.5742 7.36509C27.199 5.97598 25.561 4.87459 23.7557 4.12517C21.9504 3.37574 20.0139 2.99328 18.0592 3.00009C9.86922 3.00009 3.19422 9.67509 3.19422 17.8651C3.19422 20.4901 3.88422 23.0401 5.17422 25.2901L3.07422 33.0001L10.9492 30.9301C13.1242 32.1151 15.5692 32.7451 18.0592 32.7451C26.2492 32.7451 32.9242 26.0701 32.9242 17.8801C32.9242 13.9051 31.3792 10.1701 28.5742 7.36509ZM18.0592 30.2251C15.8392 30.2251 13.6642 29.6251 11.7592 28.5001L11.3092 28.2301L6.62922 29.4601L7.87422 24.9001L7.57422 24.4351C6.34084 22.4655 5.68593 20.189 5.68422 17.8651C5.68422 11.0551 11.2342 5.50509 18.0442 5.50509C21.3442 5.50509 24.4492 6.79509 26.7742 9.13509C27.9254 10.281 28.8378 11.6441 29.4583 13.1452C30.0789 14.6464 30.3953 16.2558 30.3892 17.8801C30.4192 24.6901 24.8692 30.2251 18.0592 30.2251ZM24.8392 20.9851C24.4642 20.8051 22.6342 19.9051 22.3042 19.7701C21.9592 19.6501 21.7192 19.5901 21.4642 19.9501C21.2092 20.3251 20.5042 21.1651 20.2942 21.4051C20.0842 21.6601 19.8592 21.6901 19.4842 21.4951C19.1092 21.3151 17.9092 20.9101 16.4992 19.6501C15.3892 18.6601 14.6542 17.4451 14.4292 17.0701C14.2192 16.6951 14.3992 16.5001 14.5942 16.3051C14.7592 16.1401 14.9692 15.8701 15.1492 15.6601C15.3292 15.4501 15.4042 15.2851 15.5242 15.0451C15.6442 14.7901 15.5842 14.5801 15.4942 14.4001C15.4042 14.2201 14.6542 12.3901 14.3542 11.6401C14.0542 10.9201 13.7392 11.0101 13.5142 10.9951H12.7942C12.5392 10.9951 12.1492 11.0851 11.8042 11.4601C11.4742 11.8351 10.5142 12.7351 10.5142 14.5651C10.5142 16.3951 11.8492 18.1651 12.0292 18.4051C12.2092 18.6601 14.6542 22.4101 18.3742 24.0151C19.2592 24.4051 19.9492 24.6301 20.4892 24.7951C21.3742 25.0801 22.1842 25.0351 22.8292 24.9451C23.5492 24.8401 25.0342 24.0451 25.3342 23.1751C25.6492 22.3051 25.6492 21.5701 25.5442 21.4051C25.4392 21.2401 25.2142 21.1651 24.8392 20.9851Z" fill="#F24E1E"/>
</svg>
